<?xml version="1.0" encoding="UTF-8"?><svg id="a" xmlns="http://www.w3.org/2000/svg" viewBox="0 0 48 48"><defs><style>.b{fill:#010101;}</style></defs><path class="b" d="M24,1.21C11.41,1.21,1.21,11.41,1.21,24s10.2,22.79,22.79,22.79,22.79-10.2,22.79-22.79S36.59,1.21,24,1.21Zm0,42.73c-11.01,0-19.94-8.93-19.94-19.94S12.99,4.06,24,4.06s19.94,8.93,19.94,19.94-8.93,19.94-19.94,19.94Zm8.55-22.79h-5.7v-5.7c0-1.57-1.28-2.85-2.85-2.85s-2.85,1.28-2.85,2.85v5.7h-5.7c-1.57,0-2.85,1.28-2.85,2.85s1.28,2.85,2.85,2.85h5.7v5.7c0,1.57,1.28,2.85,2.85,2.85s2.85-1.27,2.85-2.85v-5.7h5.7c1.57,0,2.85-1.27,2.85-2.85s-1.28-2.85-2.85-2.85Z"/></svg>