<?xml version="1.0" encoding="UTF-8"?><svg id="a" xmlns="http://www.w3.org/2000/svg" xmlns:xlink="http://www.w3.org/1999/xlink" zoomAndPan="magnify" viewBox="0 0 192 191.999996" preserveAspectRatio="xMidYMid meet" version="1.0"><path fill="#010101" d="M 96 0 C 43.066406 0 0 43.066406 0 96 C 0 148.933594 43.066406 192 96 192 C 148.933594 192 192 148.933594 192 96 C 192 43.066406 148.933594 0 96 0 Z M 18.582031 96 C 18.582031 53.308594 53.308594 18.582031 96 18.582031 C 114.003906 18.582031 130.550781 24.808594 143.714844 35.15625 L 35.15625 143.714844 C 24.808594 130.550781 18.582031 114.003906 18.582031 96 Z M 96 173.417969 C 77.996094 173.417969 61.449219 167.191406 48.285156 156.84375 L 156.84375 48.285156 C 167.191406 61.449219 173.417969 77.996094 173.417969 96 C 173.417969 138.691406 138.691406 173.417969 96 173.417969 Z M 96 173.417969 " fill-opacity="1" fill-rule="nonzero"/></svg>