<?xml version="1.0" encoding="UTF-8"?><svg id="a" xmlns="http://www.w3.org/2000/svg" viewBox="0 0 48 48"><defs><style>.b{fill:#010101;}.c{fill:#1d1d1b;}</style></defs><g><path class="b" d="M40.72,10.56h-2.39v2.39c0,1.32-1.07,2.39-2.39,2.39h-2.39c-1.32,0-2.39-1.07-2.39-2.39v-2.39h-14.33v2.39c0,1.32-1.07,2.39-2.39,2.39h-2.39c-1.32,0-2.39-1.07-2.39-2.39v-2.39h-2.39c-1.32,0-2.39,1.07-2.39,2.39v31.04c0,1.32,1.07,2.39,2.39,2.39H40.72c1.32,0,2.39-1.07,2.39-2.39V12.95c0-1.32-1.07-2.39-2.39-2.39Zm0,33.43H7.28V17.73H40.72v26.27Z"/><path class="b" d="M13.04,12.95c.77,0,1.4-.63,1.4-1.4v-1.97c0-.78-.63-1.4-1.4-1.4s-1.4,.63-1.4,1.4v1.97c0,.78,.63,1.4,1.4,1.4Z"/><path class="b" d="M34.54,12.95c.77,0,1.4-.63,1.4-1.4v-1.97c0-.78-.63-1.4-1.4-1.4s-1.4,.63-1.4,1.4v1.97c0,.78,.63,1.4,1.4,1.4Z"/><rect class="b" x="14.45" y="22.5" width="4.78" height="4.78"/><rect class="b" x="28.78" y="22.5" width="4.78" height="4.78"/><rect class="b" x="21.61" y="22.5" width="4.78" height="4.78"/><rect class="b" x="14.45" y="29.67" width="4.78" height="4.78"/><rect class="b" x="28.78" y="29.67" width="4.78" height="4.78"/><rect class="b" x="21.61" y="29.67" width="4.78" height="4.78"/><rect class="b" x="14.45" y="36.83" width="4.78" height="4.78"/><rect class="b" x="28.78" y="36.83" width="4.78" height="4.78"/><rect class="b" x="21.61" y="36.83" width="4.78" height="4.78"/></g><g><rect class="c" x="32.38" y="8.12" width="4.95" height="11.06"/><polyline class="c" points="27.29 9.18 34.86 1.62 42.42 9.18"/></g></svg>