<?xml version="1.0" encoding="UTF-8"?><svg id="a" xmlns="http://www.w3.org/2000/svg" viewBox="0 0 48 48"><defs><style>.b{fill:#010101;}</style></defs><path class="b" d="M24,1.05C11.33,1.05,1.05,11.33,1.05,24s10.27,22.95,22.95,22.95,22.95-10.28,22.95-22.95S36.67,1.05,24,1.05Zm0,43.03c-11.09,0-20.08-8.99-20.08-20.08S12.91,3.92,24,3.92s20.08,8.99,20.08,20.08-8.99,20.08-20.08,20.08Zm4.06-20.08l5.06-5.06c1.12-1.12,1.12-2.94,0-4.06-1.12-1.12-2.94-1.12-4.06,0l-5.06,5.06-5.2-5.06c-1.12-1.12-2.94-1.12-4.06,0-1.12,1.12-.83,2.94,.29,4.06l4.92,5.06-5.2,5.2c-1.12,1.12-1.12,2.94,0,4.06s2.94,1.12,4.06,0l5.2-5.2,5.2,5.2c1.12,1.12,2.94,1.12,4.06,0s1.12-2.94,0-4.06l-5.2-5.2Z"/></svg>