<?xml version="1.0" encoding="UTF-8"?><svg id="a" xmlns="http://www.w3.org/2000/svg" viewBox="0 0 48 48"><defs><style>.b{fill:#010101;}</style></defs><path class="b" d="M35.51,29.66c2.96-1.85,4.96-5.11,4.96-8.87,0-5.78-4.69-10.47-10.47-10.47s-10.47,4.69-10.47,10.47c0,3.75,1.99,7.02,4.96,8.87-5.95,2.23-10.19,7.96-10.19,14.69h31.4c0-6.73-4.24-12.45-10.19-14.69Zm-18.31,12.07c1.04-5.12,5.06-9.16,10.18-10.2v-3.36c-3.04-1.08-5.23-3.96-5.23-7.37,0-4.34,3.51-7.85,7.85-7.85s7.85,3.52,7.85,7.85c0,3.41-2.19,6.29-5.23,7.37v3.36c5.12,1.04,9.14,5.08,10.18,10.2H17.2Z"/><path class="b" d="M6.73,33.88c1.04-5.12,5.06-9.16,10.18-10.2v-3.36c-3.04-1.08-5.23-3.96-5.23-7.37,0-4.34,3.51-7.85,7.85-7.85,2.65,0,4.98,1.32,6.4,3.33,.86-.28,1.76-.47,2.69-.57-1.79-3.19-5.17-5.37-9.09-5.37-5.78,0-10.47,4.69-10.47,10.47,0,3.75,1.99,7.02,4.96,8.87-5.95,2.23-10.19,7.96-10.19,14.69H13.46c.43-.91,.94-1.79,1.51-2.62H6.73Z"/></svg>