<?xml version="1.0" encoding="UTF-8"?><svg id="a" xmlns="http://www.w3.org/2000/svg" viewBox="0 0 48 48"><defs><style>.b{fill:#010101;}</style></defs><path class="b" d="M24,1.33C11.48,1.33,1.33,11.48,1.33,24s10.15,22.67,22.67,22.67,22.67-10.15,22.67-22.67S36.52,1.33,24,1.33Zm0,42.5c-10.95,0-19.84-8.88-19.84-19.84S13.05,4.16,24,4.16s19.84,8.88,19.84,19.84-8.88,19.84-19.84,19.84Zm6.58-26.11l-9.15,9.43-4.01-4.01c-1.11-1.11-2.9-1.11-4.01,0-1.11,1.11-1.11,2.9,0,4.01l6.01,6.01c1.11,1.11,2.9,1.11,4.01,0l11.15-11.43c1.11-1.11,1.11-2.9,0-4.01-1.11-1.11-2.9-1.11-4.01,0Z"/></svg>