<?xml version="1.0" encoding="UTF-8"?><svg id="a" xmlns="http://www.w3.org/2000/svg" viewBox="0 0 48 48"><defs><style>.b{fill:#010101;}</style></defs><path class="b" d="M19.98,40.08c.74,0,1.34-.6,1.34-1.34V19.98c0-.74-.6-1.34-1.34-1.34s-1.34,.6-1.34,1.34v18.76c0,.74,.6,1.34,1.34,1.34Z"/><path class="b" d="M28.02,40.08c.74,0,1.34-.6,1.34-1.34V19.98c0-.74-.6-1.34-1.34-1.34s-1.34,.6-1.34,1.34v18.76c0,.74,.6,1.34,1.34,1.34Z"/><path class="b" d="M42.76,7.92h-13.4c0-2.96-2.4-5.36-5.36-5.36s-5.36,2.4-5.36,5.36H5.24c-1.48,0-2.68,1.2-2.68,2.68v2.68c0,1.48,1.2,2.68,2.68,2.68h2.68v26.8c0,1.48,1.2,2.68,2.68,2.68h26.8c1.48,0,2.68-1.2,2.68-2.68V15.96h2.68c1.48,0,2.68-1.2,2.68-2.68v-2.68c0-1.48-1.2-2.68-2.68-2.68Zm-18.76-2.68c1.48,0,2.68,1.2,2.68,2.68h-5.36c0-1.48,1.2-2.68,2.68-2.68Zm13.4,37.53H10.6V15.96h26.8v26.8Zm5.36-29.48H5.24v-2.68H42.76v2.68Z"/></svg>