<?xml version="1.0" encoding="UTF-8"?><svg id="a" xmlns="http://www.w3.org/2000/svg" viewBox="0 0 48 48"><defs><style>.b{fill:#010101;}</style></defs><path class="b" d="M24,1.33C11.48,1.33,1.33,11.48,1.33,24s10.15,22.67,22.67,22.67,22.67-10.15,22.67-22.67S36.52,1.33,24,1.33Zm0,42.5c-10.95,0-19.83-8.88-19.83-19.83S13.05,4.17,24,4.17s19.83,8.88,19.83,19.83-8.88,19.83-19.83,19.83Zm9.01-25.08l-9.01,9.02-9.01-9.02c-.55-.55-1.45-.55-2,0-.55,.55-.55,1.45,0,2l10.02,10.02c.55,.55,1.45,.55,2,0l10.02-10.02c.55-.55,.55-1.45,0-2-.55-.55-1.45-.55-2.01,0Z"/></svg>