<?xml version="1.0" encoding="UTF-8"?><svg id="a" xmlns="http://www.w3.org/2000/svg" viewBox="0 0 48 48"><defs><style>.b{fill:#010101;}</style></defs><path class="b" d="M42.43,2.94H5.57c-1.45,0-2.63,1.18-2.63,2.63V42.43c0,1.45,1.18,2.63,2.63,2.63H42.43c1.45,0,2.63-1.18,2.63-2.63V5.57c0-1.45-1.18-2.63-2.63-2.63Zm-25.01,2.63c.73,0,1.32,.59,1.32,1.32s-.59,1.32-1.32,1.32-1.32-.59-1.32-1.32,.59-1.32,1.32-1.32Zm-5.26,0c.73,0,1.32,.59,1.32,1.32s-.59,1.32-1.32,1.32-1.32-.59-1.32-1.32,.59-1.32,1.32-1.32Zm-5.26,0c.73,0,1.32,.59,1.32,1.32s-.59,1.32-1.32,1.32-1.32-.59-1.32-1.32,.59-1.32,1.32-1.32ZM42.43,42.43H5.57V10.84H42.43v31.59Zm-1.32-34.22H22.68c-.73,0-1.32-.59-1.32-1.32s.59-1.32,1.32-1.32h18.43c.73,0,1.32,.59,1.32,1.32s-.59,1.32-1.32,1.32Z"/><rect class="b" x="10.84" y="18.74" width="26.32" height="2.63"/><rect class="b" x="10.84" y="24" width="26.32" height="2.63"/><rect class="b" x="10.84" y="29.26" width="26.32" height="2.63"/><rect class="b" x="10.84" y="34.53" width="26.32" height="2.63"/></svg>