<?xml version="1.0" encoding="UTF-8"?><svg id="a" xmlns="http://www.w3.org/2000/svg" viewBox="0 0 48 48"><defs><style>.b{fill:#010101;}</style></defs><path class="b" d="M45.69,20.13l-1.94-1.86L29.93,4.59c-1.13-1.12-2.96-1.12-4.09,0l-4.09,4.05c-1.13,1.12-1.13,2.93,0,4.05l5.64,5.58H3.76c-1.6,0-2.89,1.28-2.89,2.86v5.73c0,1.58,1.29,2.86,2.89,2.86H27.39l-5.64,5.58c-1.13,1.12-1.13,2.93,0,4.05l4.09,4.05c1.13,1.12,2.96,1.12,4.09,0l13.82-13.68,2.09-2.15s1.3-1.06,1.3-3.58-1.45-3.86-1.45-3.86Zm-3.18,6.73l-13.61,13.51c-.56,.56-1.48,.56-2.04,0l-2.04-2.02c-.56-.56-.56-1.47,0-2.03l9.55-9.46H5.2c-.8,0-1.45-.64-1.45-1.43v-2.86c0-.79,.65-1.43,1.45-1.43h29.17l-5.89-5.83-3.66-3.62c-.57-.56-.57-1.47,0-2.03l2.04-2.03c.56-.56,1.46-.56,2.03,0l13.62,13.51s1.73,1.69,1.73,2.86-1.73,2.86-1.73,2.86Z"/></svg>