<?xml version="1.0" encoding="UTF-8"?><svg id="a" xmlns="http://www.w3.org/2000/svg" viewBox="0 0 48 48"><defs><style>.b{fill:#010101;}</style></defs><g><path class="b" d="M25.86,25.46c-5.79,0-10.49,4.74-10.62,10.63h21.24c-.13-5.89-4.83-10.63-10.62-10.63Zm-9.2,9.3c.63-4.63,4.51-8.2,9.2-8.2s8.57,3.57,9.2,8.2H16.66Z"/><path class="b" d="M36.48,14.83H15.24c.13,5.89,4.83,10.63,10.62,10.63s10.49-4.74,10.62-10.63Zm-10.62,9.53c-4.7,0-8.57-3.57-9.2-8.2h18.41c-.63,4.63-4.51,8.2-9.2,8.2Z"/><polygon class="b" points="20.55 33.43 31.18 33.43 25.86 28.12 20.55 33.43"/><path class="b" d="M25.86,22.8c2.36,0,4.47-1.03,5.93-2.66h-11.86c1.46,1.63,3.57,2.66,5.93,2.66Z"/></g><path class="b" d="M25.15,3.92c-1.34,0-2.66,.14-3.93,.39l1.24,1.78c.88-.13,1.78-.2,2.69-.2,9.99,0,18.12,8.13,18.12,18.12s-8.13,18.12-18.12,18.12S7.04,33.99,7.04,24c0-4.17,1.42-8.02,3.8-11.09l-1.17-1.69c-2.87,3.47-4.6,7.92-4.6,12.77,0,11.07,9.01,20.08,20.08,20.08s20.08-9.01,20.08-20.08S36.23,3.92,25.15,3.92Z"/><polygon class="b" points="11.64 18.8 10.16 18.8 10.16 11.76 2.76 11.76 2.76 10.29 11.64 10.29 11.64 18.8"/></svg>