<?xml version="1.0" encoding="UTF-8"?><svg id="a" xmlns="http://www.w3.org/2000/svg" viewBox="0 0 48 48"><defs><style>.b{fill:#f6e948;}</style></defs><path class="b" d="M2.23,35.35h0v10.42H12.65s.93,0,1.92-.8L44.97,14.57c1.06-1.06,1.06-2.79,0-3.85l-7.7-7.7c-1.06-1.06-2.79-1.06-3.85,0L3.03,33.43c-.79,.73-.8,1.92-.8,1.92ZM39.2,16.5l-7.7-7.7,3.85-3.85,7.7,7.7-3.85,3.85ZM12.65,43.05l-2.89-2.89L34.39,15.53l2.89,2.89L12.65,43.05Zm-7.7-3.85l3.85,3.85h-3.85v-3.85Zm0-3.85L29.58,10.72l2.89,2.89L7.84,38.24l-2.89-2.89Z"/></svg>