<?xml version="1.0" encoding="UTF-8"?><svg id="a" xmlns="http://www.w3.org/2000/svg" viewBox="0 0 48 48"><defs><style>.b{fill:#010101;}</style></defs><path class="b" d="M24,1.91C11.8,1.91,1.91,11.8,1.91,24s9.89,22.09,22.09,22.09,22.09-9.89,22.09-22.09S36.2,1.91,24,1.91Zm0,41.42c-10.68,0-19.33-8.65-19.33-19.33S13.32,4.67,24,4.67s19.33,8.65,19.33,19.33-8.65,19.33-19.33,19.33Z"/><path class="b" d="M33.66,24h-9.66V8.81c0-.76-.62-1.38-1.38-1.38s-1.38,.62-1.38,1.38V25.38c0,.76,.62,1.38,1.38,1.38h11.05c.76,0,1.38-.62,1.38-1.38s-.62-1.38-1.38-1.38Z"/></svg>