<?xml version="1.0" encoding="UTF-8"?><svg id="a" xmlns="http://www.w3.org/2000/svg" viewBox="0 0 48 48"><defs><style>.b{fill:#010101;}</style></defs><g><path class="b" d="M40.57,1.91H15.72L4.67,12.95v30.37c0,1.52,1.24,2.76,2.76,2.76H40.57c1.52,0,2.76-1.24,2.76-2.76V4.67c0-1.52-1.24-2.76-2.76-2.76ZM15.72,6.05v6.9h-6.9l6.9-6.9Zm24.85,37.28H7.43V15.72H15.72c1.52,0,2.76-1.24,2.76-2.76V4.67h22.09V43.33Z"/><rect class="b" x="12.95" y="24" width="22.09" height="2.76"/><rect class="b" x="18.48" y="18.48" width="16.57" height="2.76"/><rect class="b" x="24" y="12.95" width="11.05" height="2.76"/><rect class="b" x="12.95" y="29.52" width="22.09" height="2.76"/><rect class="b" x="12.95" y="35.05" width="22.09" height="2.76"/></g><circle class="b" cx="36.24" cy="14.27" r="9.9"/></svg>