<?xml version="1.0" encoding="UTF-8"?><svg id="a" xmlns="http://www.w3.org/2000/svg" viewBox="0 0 48 48"><defs><style>.b{fill:#010101;}</style></defs><path class="b" d="M24,.85C11.48,.85,1.33,11,1.33,23.52s10.15,22.67,22.67,22.67,22.67-10.15,22.67-22.67S36.52,.85,24,.85Zm0,42.5c-10.95,0-19.83-8.88-19.83-19.83S13.05,3.69,24,3.69s19.83,8.88,19.83,19.83-8.88,19.83-19.83,19.83Zm-3.25-30.85c-.55-.55-1.45-.55-2,0-.55,.55-.55,1.45,0,2l9.02,9.01-9.02,9.01c-.55,.55-.55,1.45,0,2.01,.55,.55,1.45,.55,2,0l10.02-10.02c.55-.55,.55-1.45,0-2l-10.02-10.02Z"/></svg>