<?xml version="1.0" encoding="UTF-8"?><svg id="a" xmlns="http://www.w3.org/2000/svg" viewBox="0 0 48 48"><defs><style>.b{fill:#010101;}</style></defs><path class="b" d="M42.43,8.21H10.84c-1.45,0-2.63,1.18-2.63,2.63v31.59c0,1.45,1.18,2.63,2.63,2.63h31.59c1.45,0,2.63-1.18,2.63-2.63V10.84c0-1.45-1.18-2.63-2.63-2.63Zm-19.74,2.63c.73,0,1.32,.59,1.32,1.32s-.59,1.32-1.32,1.32-1.32-.59-1.32-1.32,.59-1.32,1.32-1.32Zm-5.26,0c.73,0,1.32,.59,1.32,1.32s-.59,1.32-1.32,1.32-1.32-.59-1.32-1.32,.59-1.32,1.32-1.32Zm-5.26,0c.73,0,1.32,.59,1.32,1.32s-.59,1.32-1.32,1.32-1.32-.59-1.32-1.32,.59-1.32,1.32-1.32Zm30.27,31.59H10.84V16.1h31.59v26.32Zm-1.32-28.96h-13.16c-.73,0-1.32-.59-1.32-1.32s.59-1.32,1.32-1.32h13.16c.73,0,1.32,.59,1.32,1.32s-.59,1.32-1.32,1.32Z"/><path class="b" d="M35.85,5.57h3.95c0-1.45-1.18-2.63-2.63-2.63H5.57c-1.45,0-2.63,1.18-2.63,2.63v31.59c0,1.45,1.18,2.63,2.63,2.63V5.57h30.27Z"/></svg>