<?xml version="1.0" encoding="UTF-8"?><svg id="a" xmlns="http://www.w3.org/2000/svg" viewBox="0 0 48 48"><defs><style>.b{fill:#010101;}</style></defs><path class="b" d="M2.36,27.86l1.94,1.86,13.79,13.65c1.13,1.11,2.95,1.11,4.08,0l4.08-4.04c1.13-1.11,1.13-2.92,0-4.04l-5.63-5.57h23.58c1.6,0,2.89-1.28,2.89-2.85v-5.72c0-1.58-1.29-2.86-2.89-2.86H20.62l5.63-5.57c1.13-1.12,1.13-2.93,0-4.04l-4.08-4.04c-1.13-1.12-2.95-1.12-4.08,0L4.3,18.29l-2.08,2.14s-1.3,1.05-1.3,3.57,1.44,3.86,1.44,3.86Zm3.17-6.71L19.11,7.67c.56-.56,1.47-.56,2.04,0l2.04,2.02c.56,.56,.56,1.46,0,2.02l-9.53,9.44h29.11c.8,0,1.44,.64,1.44,1.43v2.85c0,.79-.65,1.43-1.44,1.43H13.65l5.88,5.82,3.65,3.62c.56,.56,.56,1.46,0,2.02l-2.04,2.02c-.56,.56-1.46,.56-2.02,0L5.53,26.86s-1.73-1.69-1.73-2.86,1.73-2.86,1.73-2.86Z"/></svg>