<?xml version="1.0" encoding="UTF-8"?><svg id="a" xmlns="http://www.w3.org/2000/svg" viewBox="0 0 48 48"><path d="M44.43,8.76c-.99-.99-3.66-3.66-4.92-4.92-1.26-1.26-2.77-1.28-2.77-1.28h-7.37V10.6H13.28V2.55H5.23c-1.48,0-2.68,1.2-2.68,2.68V42.77c0,1.48,1.2,2.68,2.68,2.68H42.77c1.48,0,2.68-1.2,2.68-2.68V11.13s-.02-1.38-1.01-2.37Zm-9.71,34.01H13.28v-13.4h21.45v13.4Zm8.04-1.34c0,.74-.6,1.34-1.34,1.34h-4.02v-14.74c0-1.34-1.34-1.34-1.34-1.34H11.94c-.74,0-1.34,.6-1.34,1.34v14.74H6.57c-.74,0-1.34-.6-1.34-1.34V6.57c0-.74,.6-1.34,1.34-1.34h4.02v6.7c0,.74,.6,1.34,1.34,1.34H30.7c.74,0,1.34-.6,1.34-1.34V5.23h4.02c1.11,0,1.74,.67,1.74,.67l4.29,4.29s.67,.57,.67,1.74v29.49ZM26.68,2.55h-5.36V7.92h5.36V2.55Z"/></svg>