<?xml version="1.0" encoding="UTF-8"?><svg id="a" xmlns="http://www.w3.org/2000/svg" viewBox="0 0 48 48"><defs><style>.b{fill:#010101;}</style></defs><path class="b" d="M44.67,41.2l-12.91-12.91c1.9-2.64,3.03-5.88,3.03-9.38,0-8.9-7.22-16.11-16.11-16.11S2.56,10.02,2.56,18.92s7.22,16.11,16.11,16.11c3.5,0,6.73-1.13,9.38-3.03l12.91,12.91c1.02,1.02,2.69,1.02,3.71,0,1.02-1.03,1.02-2.69,0-3.71Zm-26-8.86c-7.42,0-13.43-6.01-13.43-13.43S11.26,5.49,18.68,5.49s13.43,6.01,13.43,13.43-6.01,13.43-13.43,13.43Z"/></svg>