<?xml version="1.0" encoding="UTF-8"?><svg id="a" xmlns="http://www.w3.org/2000/svg" viewBox="0 0 48 48"><defs><style>.b{fill:#010101;}</style></defs><path class="b" d="M39.19,18.47c-.55,0-1.06,.11-1.54,.3-.48-1.77-2.07-3.07-3.99-3.07-1.07,0-2.03,.41-2.77,1.08-.73-.66-1.7-1.08-2.77-1.08-.49,0-.95,.1-1.38,.25V6.02c0-2.29-1.86-4.15-4.15-4.15s-4.15,1.86-4.15,4.15V28.23l-6.45-6.45c-1.71-1.71-4.49-1.71-6.2,0-1.71,1.71-1.29,4.17,0,6.2,0,0,9.8,18.15,18.19,18.15h11.07c4.58,0,8.3-3.71,8.3-8.3v-15.21c0-2.29-1.86-4.15-4.15-4.15Zm1.38,8.3v11.07c0,3.06-2.48,5.53-5.53,5.53h-11.07c-7.13,.17-16.12-17.45-16.12-17.45-.4-.82-.57-1.5,0-2.07,.57-.57,1.49-.57,2.07,0l8.52,8.52v-.07s2.77,1.25,2.77-2.77,0-2.77,0-2.77V6.02c0-.76,.62-1.38,1.38-1.38s1.38,.62,1.38,1.38V26.77h2.77v-6.92c0-.76,.62-1.38,1.38-1.38s1.38,.62,1.38,1.38v6.92h2.77v-6.92c0-.76,.62-1.38,1.38-1.38s1.38,.62,1.38,1.38v6.92h2.77v-4.15c0-.76,.62-1.38,1.38-1.38s1.38,.62,1.38,1.38v4.15Z"/></svg>