<?xml version="1.0" encoding="UTF-8"?><svg id="a" xmlns="http://www.w3.org/2000/svg" viewBox="0 0 48 48"><defs><style>.b{fill:#010101;}</style></defs><path class="b" d="M42.43,5.57h-2.63v2.63c0,1.45-1.18,2.63-2.63,2.63h-2.63c-1.45,0-2.63-1.18-2.63-2.63v-2.63h-15.79v2.63c0,1.45-1.18,2.63-2.63,2.63h-2.63c-1.45,0-2.63-1.18-2.63-2.63v-2.63h-2.63c-1.45,0-2.63,1.18-2.63,2.63V42.43c0,1.45,1.18,2.63,2.63,2.63H42.43c1.45,0,2.63-1.18,2.63-2.63V8.21c0-1.45-1.18-2.63-2.63-2.63Zm0,36.85H5.57V13.47H42.43v28.96Z"/><path class="b" d="M11.92,8.2c.85,0,1.55-.69,1.55-1.55v-2.17c0-.85-.69-1.55-1.55-1.55s-1.55,.69-1.55,1.55v2.17c0,.85,.69,1.55,1.55,1.55Z"/><path class="b" d="M35.61,8.2c.85,0,1.55-.69,1.55-1.55v-2.17c0-.85-.69-1.55-1.55-1.55s-1.55,.69-1.55,1.55v2.17c0,.85,.69,1.55,1.55,1.55Z"/><rect class="b" x="13.47" y="18.74" width="5.26" height="5.26"/><rect class="b" x="29.26" y="18.74" width="5.26" height="5.26"/><rect class="b" x="21.37" y="18.74" width="5.26" height="5.26"/><rect class="b" x="13.47" y="26.63" width="5.26" height="5.26"/><rect class="b" x="29.26" y="26.63" width="5.26" height="5.26"/><rect class="b" x="21.37" y="26.63" width="5.26" height="5.26"/><rect class="b" x="13.47" y="34.53" width="5.26" height="5.26"/><rect class="b" x="29.26" y="34.53" width="5.26" height="5.26"/><rect class="b" x="21.37" y="34.53" width="5.26" height="5.26"/></svg>